<svg id="everything" xmlns="http://www.w3.org/2000/svg" viewBox="0 0 280 280"><defs><style>.cls-1{fill:#fff;stroke:#574162;stroke-miterlimit:10;stroke-width:3px;}.cls-2{fill:#574162;}</style></defs><title>icon</title><path class="cls-1" d="M117.52,79.38l1,17.62L91.78,87.94A87.42,87.42,0,0,1,80,88.72c-28.72,0-52-13.59-52-30.36S51.28,28,80,28s52,13.59,52,30.36C132,66.52,126.49,73.93,117.52,79.38Z"/><circle class="cls-1" cx="221.47" cy="154" r="29"/><path class="cls-1" d="M221.47,183c-22.22,0-40.27,24.73-40.53,55.36H262C261.74,207.73,243.68,183,221.47,183Z"/><circle class="cls-1" cx="61.47" cy="153" r="29"/><path class="cls-1" d="M61.47,182c-22.22,0-40.27,24.73-40.53,55.36H102C101.74,206.73,83.68,182,61.47,182Z"/><circle class="cls-1" cx="141.49" cy="143.86" r="38.55"/><path class="cls-1" d="M141.49,182.41C112,182.41,88,215.28,87.61,256H195.37C195,215.28,171,182.41,141.49,182.41Z"/><circle class="cls-2" cx="68.25" cy="59.5" r="2.67"/><circle class="cls-2" cx="80" cy="59.5" r="2.67"/><circle class="cls-2" cx="91.75" cy="59.5" r="2.67"/><path class="cls-1" d="M214,93.63h0l.5,17.86-18.08-15H196c-20.57,0-37.25-10.3-37.25-23s16.68-23,37.25-23,37.25,10.3,37.25,23C233.25,82.17,225.47,89.73,214,93.63Z"/><circle class="cls-2" cx="184.25" cy="73.5" r="2.67"/><circle class="cls-2" cx="196" cy="73.5" r="2.67"/><circle class="cls-2" cx="207.75" cy="73.5" r="2.67"/></svg>