<svg id="everything" xmlns="http://www.w3.org/2000/svg" viewBox="0 0 280 280"><defs><style>.cls-1{fill:none;stroke:#574162;stroke-miterlimit:10;stroke-width:4px;}</style></defs><title>icon</title><path class="cls-1" d="M202.42,65.29,189.8,49.91A12.65,12.65,0,0,0,180,45.28H124.59a12.65,12.65,0,0,0-9.78,4.63L102.19,65.29a15,15,0,0,1-11.56,5.47H33.94A10.74,10.74,0,0,0,23.2,81.51V224a10.74,10.74,0,0,0,10.74,10.74H246.06A10.74,10.74,0,0,0,256.8,224V81.51a10.74,10.74,0,0,0-10.74-10.74H214A15,15,0,0,1,202.42,65.29Z"/><circle class="cls-1" cx="153.17" cy="152.74" r="62.44"/><path class="cls-1" d="M153.17,205a52.24,52.24,0,1,1,52.24-52.24A52.3,52.3,0,0,1,153.17,205Z"/><path class="cls-1" d="M160.08,112.85a40.41,40.41,0,0,1,34.29,39.9"/><path class="cls-1" d="M46.56,64.82V57.64c0-2.6,2.39-4.72,5.34-4.72H70.1c3,0,5.34,2.11,5.34,4.72v7.18"/><path class="cls-1" d="M75.44,113.24h-18A7.52,7.52,0,0,0,50,120.76v94.42"/><circle class="cls-1" cx="61" cy="93.7" r="8.49"/><path class="cls-1" d="M214.39,140.42a12.32,12.32,0,0,1,0,24.64"/><path class="cls-1" d="M125.56,59.72v4.37a7.52,7.52,0,0,0,7.52,7.52h51.09"/></svg>