<svg id="everything" xmlns="http://www.w3.org/2000/svg" viewBox="0 0 280 280"><defs><style>.cls-1{fill:none;stroke:#574162;stroke-miterlimit:10;stroke-width:4px;}</style></defs><title>icon</title><path class="cls-1" d="M44.33,20.6H235.82A14.21,14.21,0,0,1,250,34.8v150a0,0,0,0,1,0,0H30.13a0,0,0,0,1,0,0V34.8A14.21,14.21,0,0,1,44.33,20.6Z"/><rect class="cls-1" x="74.24" y="9.02" width="131.67" height="187.36" transform="translate(242.78 -37.38) rotate(90)"/><path class="cls-1" d="M30.57,185.3h219.6l16.76,47.11c1.63,5.4-1.73,9.83-7.48,9.83H20.4c-5.78,0-9.14-4.44-7.47-9.86Z"/><polygon class="cls-1" points="41.42 217.8 48.74 197.01 231.47 197.01 238.43 217.8 41.42 217.8"/><path class="cls-1" d="M12.66,236.81v16.42c0,3.4,2.52,6.18,5.59,6.18H261.91c3.07,0,5.59-2.78,5.59-6.18V236.81"/><line class="cls-1" x1="122.3" y1="251.27" x2="157.54" y2="251.27"/></svg>