<svg id="everything" xmlns="http://www.w3.org/2000/svg" viewBox="0 0 280 280"><defs><style>.cls-1{fill:none;stroke:#574162;stroke-miterlimit:10;stroke-width:3px;}</style></defs><title>icon</title><rect class="cls-1" x="25" y="42.43" width="171.35" height="198.57"/><path class="cls-1" d="M215.65,39.9V219.14s2.21,23.64,16.21,23.64,16.21-23.64,16.21-23.64V39.9c0-5.49-4-10-8.84-10H224.49C219.63,29.92,215.65,34.41,215.65,39.9Z"/><line class="cls-1" x1="215.65" y1="50.71" x2="248.07" y2="50.71"/><line class="cls-1" x1="215.9" y1="59.85" x2="247.87" y2="59.85"/><path class="cls-1" d="M248.07,69h6.24A6.73,6.73,0,0,1,261,75.8v58.05"/><line class="cls-1" x1="231.86" y1="256.08" x2="231.86" y2="242.77"/><line class="cls-1" x1="247.87" y1="171.55" x2="215.9" y2="171.55"/><rect class="cls-1" x="40.46" y="57.5" width="140.44" height="44.32"/><polyline class="cls-1" points="170.92 184.38 50.17 184.38 50.17 120.38"/><rect class="cls-1" x="40.46" y="203.77" width="140.44" height="21.28"/><polyline class="cls-1" points="65.48 164.76 95.94 144.11 115.74 154.82 148.48 128.06 164.12 137.43"/></svg>