<svg id="everything" xmlns="http://www.w3.org/2000/svg" viewBox="0 0 280 280"><defs><style>.cls-1{fill:none;}.cls-1,.cls-3{stroke:#574162;stroke-miterlimit:10;stroke-width:3px;}.cls-2{fill:#574162;}.cls-3{fill:#fff;}</style></defs><title>icon</title><path class="cls-1" d="M43.36,35.25H220A14.21,14.21,0,0,1,234.2,49.46V180.78a0,0,0,0,1,0,0h-205a0,0,0,0,1,0,0V49.46A14.21,14.21,0,0,1,43.36,35.25Z"/><rect class="cls-1" x="73.47" y="20.42" width="116.42" height="185.61" transform="translate(244.91 -18.45) rotate(90)"/><path class="cls-1" d="M231.82,201.64H32.18c-4.58,0-8.71-3.21-10.44-8.12l-3-8.59a2.54,2.54,0,0,1,2.55-3.6h221a2.56,2.56,0,0,1,2.59,3.48l-2.39,8.05C240.91,198.11,236.63,201.64,231.82,201.64Z"/><circle class="cls-2" cx="132.23" cy="46.23" r="1.65" transform="translate(6.04 107.04) rotate(-45)"/><line class="cls-1" x1="243.7" y1="189.01" x2="20.16" y2="189.01"/><rect class="cls-3" x="173.3" y="94.63" width="86.18" height="158.12" rx="8.27" ry="8.27"/><rect class="cls-3" x="181.96" y="116.73" width="68.86" height="113.91"/><circle class="cls-3" cx="216.39" cy="241.83" r="4.68"/><line class="cls-3" x1="215.09" y1="106.07" x2="224.97" y2="106.07"/><circle class="cls-2" cx="209.37" cy="106.07" r="1.56" transform="translate(-13.68 179.11) rotate(-45)"/></svg>