<svg id="everything" xmlns="http://www.w3.org/2000/svg" viewBox="0 0 280 280"><defs><style>.cls-1{fill:none;stroke:#574162;stroke-miterlimit:10;stroke-width:3px;}</style></defs><title>icon</title><rect class="cls-1" x="35.26" y="72.93" width="94.11" height="24.17"/><rect class="cls-1" x="35.26" y="28.03" width="94.11" height="44.9"/><line class="cls-1" x1="49.94" y1="28.03" x2="49.94" y2="59.98"/><line class="cls-1" x1="66.34" y1="28.03" x2="66.34" y2="59.98"/><line class="cls-1" x1="82.31" y1="28.03" x2="82.31" y2="59.98"/><line class="cls-1" x1="98.29" y1="28.03" x2="98.29" y2="59.98"/><line class="cls-1" x1="112.96" y1="28.03" x2="112.96" y2="59.98"/><path class="cls-1" d="M35.26,97.1V101a11,11,0,0,0,4.08,8.65c8.63,6.75,28.28,24.32,32.6,47.07C77.53,186,48,256,82.31,256S87.1,186,92.68,156.68c4.33-22.75,24-40.31,32.6-47.07a11,11,0,0,0,4.08-8.65V97.1Z"/><path class="cls-1" d="M180.08,168.41c0,47.21-9.5,85.48-15.54,85.48S149,215.61,149,168.41s0-85.48,15.54-85.48S180.08,121.2,180.08,168.41Z"/><path class="cls-1" d="M170.29,30.12s-18.71,13-18.71,29.5c0,10.07,5.8,13,13,13a12.92,12.92,0,0,0,13-13c0-7.19-4.42-10.73-5.76-15.83A41.05,41.05,0,0,1,170.29,30.12Z"/><line class="cls-1" x1="149" y1="124.37" x2="180.08" y2="124.37"/><line class="cls-1" x1="149.23" y1="135.6" x2="179.89" y2="135.6"/><path class="cls-1" d="M206.75,38.39V224.52l19,31.45,19-31.45V38.39A10.39,10.39,0,0,0,234.38,28H217.11A10.39,10.39,0,0,0,206.75,38.39Z"/><line class="cls-1" x1="206.75" y1="53.07" x2="244.74" y2="53.07"/><line class="cls-1" x1="207.04" y1="64.29" x2="244.51" y2="64.29"/><line class="cls-1" x1="217.81" y1="242.83" x2="233.68" y2="242.83"/><polyline class="cls-1" points="206.75 224.89 213.23 218.41 220.57 225.75 228.77 217.55 236.54 225.32 244.41 217.44"/><line class="cls-1" x1="218.84" y1="79.84" x2="218.84" y2="199.85"/><line class="cls-1" x1="232.65" y1="79.84" x2="232.65" y2="199.85"/></svg>