<svg id="everything" xmlns="http://www.w3.org/2000/svg" viewBox="0 0 280 280"><defs><style>.cls-1{fill:none;stroke:#574162;stroke-miterlimit:10;stroke-width:4px;}</style></defs><title>icon</title><rect class="cls-1" x="21.03" y="39.83" width="175.32" height="203.17"/><path class="cls-1" d="M215.65,38.9V218.14s2.21,23.64,16.21,23.64,16.21-23.64,16.21-23.64V38.9c0-5.49-4-10-8.84-10H224.49C219.63,28.92,215.65,33.41,215.65,38.9Z"/><line class="cls-1" x1="215.65" y1="49.71" x2="248.07" y2="49.71"/><line class="cls-1" x1="215.9" y1="58.85" x2="247.87" y2="58.85"/><path class="cls-1" d="M248.07,68h6.24A6.73,6.73,0,0,1,261,74.8v58.05"/><line class="cls-1" x1="231.86" y1="255.08" x2="231.86" y2="241.77"/><line class="cls-1" x1="247.87" y1="170.55" x2="215.9" y2="170.55"/><rect class="cls-1" x="36.85" y="55.25" width="143.69" height="45.35"/><polyline class="cls-1" points="170.33 185.07 46.79 185.07 46.79 119.58"/><rect class="cls-1" x="36.85" y="204.9" width="143.69" height="21.77"/><polyline class="cls-1" points="62.45 164.99 93.61 143.87 113.87 154.82 147.37 127.44 163.37 137.03"/></svg>