<svg id="content" xmlns="http://www.w3.org/2000/svg" viewBox="0 0 600 400"><defs><style>.cls-1,.cls-4,.cls-7{font-size:24.87px;font-family:Montserrat-Light, Montserrat;}.cls-2{letter-spacing:-0.01em;}.cls-3{letter-spacing:-0.04em;}.cls-10,.cls-4{letter-spacing:-0.01em;}.cls-5{letter-spacing:0em;}.cls-6{letter-spacing:0em;}.cls-7{letter-spacing:0em;}.cls-8{letter-spacing:0em;}.cls-9{letter-spacing:-0.03em;}.cls-11{letter-spacing:-0.01em;}.cls-12{letter-spacing:-0.03em;}.cls-13{fill:#fff;}.cls-14{fill:#574162;}</style></defs><title>skills</title><text class="cls-1" transform="translate(136.94 38.29)"><tspan class="cls-2">J</tspan><tspan class="cls-3" x="11.84" y="0">AV</tspan><tspan x="44.67" y="0">A</tspan></text><text class="cls-4" transform="translate(90.81 81.12)">P<tspan class="cls-5" x="17.53" y="0">Y</tspan><tspan class="cls-6" x="33" y="0">THON</tspan></text><text class="cls-1" transform="translate(126.57 123.96)">HTML</text><text class="cls-7" transform="translate(151.14 166.79)">C<tspan class="cls-8" x="17.71" y="0">SS</tspan></text><text class="cls-1" transform="translate(47.81 209.63)"><tspan class="cls-2">J</tspan><tspan class="cls-3" x="11.84" y="0">AV</tspan><tspan x="44.67" y="0">ASCRI</tspan><tspan class="cls-9" x="120.4" y="0">P</tspan><tspan x="137.33" y="0">T</tspan></text><text class="cls-1" transform="translate(98.07 252.47)">SKE<tspan class="cls-10" x="49.27" y="0">T</tspan><tspan x="63.02" y="0">CH</tspan></text><text class="cls-1" transform="translate(32.16 295.3)"><tspan class="cls-10">P</tspan><tspan x="17.53" y="0">H</tspan><tspan class="cls-10" x="37.78" y="0">OT</tspan><tspan class="cls-6" x="72.13" y="0">OSHOP</tspan></text><text class="cls-1" transform="translate(27.36 338.14)">IL<tspan class="cls-11" x="21.89" y="0">L</tspan><tspan x="36.09" y="0">U</tspan><tspan class="cls-10" x="55.81" y="0">S</tspan><tspan x="70.71" y="0">TR</tspan><tspan class="cls-12" x="102.62" y="0">A</tspan><tspan class="cls-10" x="119.28" y="0">T</tspan><tspan class="cls-6" x="133.03" y="0">OR</tspan></text><text class="cls-1" transform="translate(72.43 380.98)">INDESIGN</text><rect class="cls-13" x="221.99" y="19.02" width="334.72" height="19.26"/><rect class="cls-14" x="221.99" y="19.02" width="282.91" height="19.26"/><rect class="cls-13" x="221.99" y="61.65" width="334.72" height="19.26"/><rect class="cls-14" x="221.99" y="61.65" width="282.91" height="19.26"/><rect class="cls-13" x="221.99" y="104.98" width="334.72" height="19.26"/><rect class="cls-14" x="221.99" y="104.98" width="306.03" height="19.26"/><rect class="cls-13" x="221.99" y="148.31" width="334.72" height="19.26"/><rect class="cls-14" x="221.99" y="148.31" width="306.03" height="19.26"/><rect class="cls-13" x="221.99" y="190.37" width="334.72" height="19.26"/><rect class="cls-14" x="221.99" y="190.37" width="255.41" height="19.26"/><rect class="cls-13" x="221.99" y="232.42" width="334.72" height="19.26"/><rect class="cls-14" x="221.99" y="232.42" width="255.41" height="19.26"/><rect class="cls-13" x="221.99" y="276.04" width="334.72" height="19.26"/><rect class="cls-14" x="221.99" y="276.04" width="306.03" height="19.26"/><rect class="cls-13" x="221.99" y="319.66" width="334.72" height="19.26"/><rect class="cls-14" x="221.99" y="319.66" width="306.03" height="19.26"/><rect class="cls-13" x="221.99" y="361.71" width="334.72" height="19.26"/><rect class="cls-14" x="221.99" y="361.71" width="167.36" height="19.26"/></svg>